<svg xmlns="http://www.w3.org/2000/svg" width="2000" height="2000">
  <path d="M 1000.41,1000.00 L 1000.41,1000.01 L 1000.41,1000.01 L 1000.42,1000.02 L 1000.42,1000.02 L 1000.42,1000.03 L 1000.42,1000.03 L 1000.42,1000.04 L 1000.42,1000.04 L 1000.42,1000.05 L 1000.42,1000.05 L 1000.43,1000.06 L 1000.43,1000.06 L 1000.43,1000.07 L 1000.43,1000.08 L 1000.43,1000.08 L 1000.43,1000.09 L 1000.43,1000.09 L 1000.43,1000.10 L 1000.43,1000.10 L 1000.43,1000.11 L 1000.43,1000.12 L 1000.43,1000.12 L 1000.43,1000.13 L 1000.43,1000.13 L 1000.43,1000.14 L 1000.43,1000.15 L 1000.43,1000.15 L 1000.43,1000.16 L 1000.43,1000.16 L 1000.43,1000.17 L 1000.43,1000.18 L 1000.43,1000.18 L 1000.43,1000.19 L 1000.43,1000.19 L 1000.43,1000.20 L 1000.43,1000.21 L 1000.42,1000.21 L 1000.42,1000.22 L 1000.42,1000.23 L 1000.42,1000.23 L 1000.42,1000.24 L 1000.42,1000.24 L 1000.42,1000.25 L 1000.42,1000.26 L 1000.41,1000.26 L 1000.41,1000.27 L 1000.41,1000.27 L 1000.41,1000.28 L 1000.41,1000.29 L 1000.40,1000.29 L 1000.40,1000.30 L 1000.40,1000.31 L 1000.40,1000.31 L 1000.39,1000.32 L 1000.39,1000.32 L 1000.39,1000.33 L 1000.39,1000.34 L 1000.38,1000.34 L 1000.38,1000.35 L 1000.38,1000.36 L 1000.38,1000.36 L 1000.37,1000.37 L 1000.37,1000.37 L 1000.37,1000.38 L 1000.36,1000.39 L 1000.36,1000.39 L 1000.36,1000.40 L 1000.35,1000.40 L 1000.35,1000.41 L 1000.34,1000.42 L 1000.34,1000.42 L 1000.34,1000.43 L 1000.33,1000.43 L 1000.33,1000.44 L 1000.32,1000.44 L 1000.32,1000.45 L 1000.31,1000.46 L 1000.31,1000.46 L 1000.31,1000.47 L 1000.30,1000.47 L 1000.30,1000.48 L 1000.29,1000.48 L 1000.29,1000.49 L 1000.28,1000.50 L 1000.28,1000.50 L 1000.27,1000.51 L 1000.26,1000.51 L 1000.26,1000.52 L 1000.25,1000.52 L 1000.25,1000.53 L 1000.24,1000.53 L 1000.24,1000.54 L 1000.23,1000.54 L 1000.22,1000.55 L 1000.22,1000.55 L 1000.21,1000.56 L 1000.21,1000.56 L 1000.20,1000.57 L 1000.19,1000.57 L 1000.19,1000.58 L 1000.18,1000.58 L 1000.17,1000.58 L 1000.17,1000.59 L 1000.16,1000.59 L 1000.15,1000.60 L 1000.15,1000.60 L 1000.14,1000.61 L 1000.13,1000.61 L 1000.13,1000.61 L 1000.12,1000.62 L 1000.11,1000.62 L 1000.10,1000.63 L 1000.10,1000.63 L 1000.09,1000.63 L 1000.08,1000.64 L 1000.07,1000.64 L 1000.06,1000.64 L 1000.06,1000.65 L 1000.05,1000.65 L 1000.04,1000.65 L 1000.03,1000.66 L 1000.02,1000.66 L 1000.02,1000.66 L 1000.01,1000.66 L 1000.00,1000.67 L 999.99,1000.67 L 999.98,1000.67 L 999.97,1000.67 L 999.97,1000.68 L 999.96,1000.68 L 999.95,1000.68 L 999.94,1000.68 L 999.93,1000.68 L 999.92,1000.69 L 999.91,1000.69 L 999.90,1000.69 L 999.90,1000.69 L 999.89,1000.69 L 999.88,1000.69 L 999.87,1000.69 L 999.86,1000.69 L 999.85,1000.70 L 999.84,1000.70 L 999.83,1000.70 L 999.82,1000.70 L 999.81,1000.70 L 999.80,1000.70 L 999.79,1000.70 L 999.78,1000.70 L 999.77,1000.70 L 999.76,1000.70 L 999.75,1000.70 L 999.74,1000.70 L 999.73,1000.70 L 999.72,1000.70 L 999.71,1000.69 L 999.70,1000.69 L 999.70,1000.69 L 999.69,1000.69 L 999.68,1000.69 L 999.67,1000.69 L 999.66,1000.69 L 999.65,1000.69 L 999.64,1000.68 L 999.63,1000.68 L 999.62,1000.68 L 999.61,1000.68 L 999.60,1000.67 L 999.59,1000.67 L 999.58,1000.67 L 999.57,1000.67 L 999.56,1000.66 L 999.55,1000.66 L 999.54,1000.66 L 999.53,1000.65 L 999.52,1000.65 L 999.51,1000.65 L 999.49,1000.64 L 999.48,1000.64 L 999.47,1000.63 L 999.46,1000.63 L 999.46,1000.63 L 999.45,1000.62 L 999.44,1000.62 L 999.43,1000.61 L 999.42,1000.61 L 999.41,1000.60 L 999.40,1000.60 L 999.39,1000.59 L 999.38,1000.59 L 999.37,1000.58 L 999.36,1000.57 L 999.35,1000.57 L 999.34,1000.56 L 999.33,1000.56 L 999.32,1000.55 L 999.31,1000.54 L 999.30,1000.54 L 999.29,1000.53 L 999.28,1000.52 L 999.27,1000.52 L 999.26,1000.51 L 999.25,1000.50 L 999.24,1000.49 L 999.23,1000.49 L 999.23,1000.48 L 999.22,1000.47 L 999.21,1000.46 L 999.20,1000.45 L 999.19,1000.45 L 999.18,1000.44 L 999.17,1000.43 L 999.16,1000.42 L 999.16,1000.41 L 999.15,1000.40 L 999.14,1000.39 L 999.13,1000.38 L 999.12,1000.37 L 999.11,1000.36 L 999.11,1000.35 L 999.10,1000.34 L 999.09,1000.33 L 999.08,1000.32 L 999.08,1000.31 L 999.07,1000.30 L 999.06,1000.29 L 999.05,1000.28 L 999.05,1000.27 L 999.04,1000.26 L 999.03,1000.25 L 999.03,1000.24 L 999.02,1000.23 L 999.01,1000.21 L 999.01,1000.20 L 999.00,1000.19 L 998.99,1000.18 L 998.99,1000.17 L 998.98,1000.15 L 998.98,1000.14 L 998.97,1000.13 L 998.96,1000.12 L 998.96,1000.10 L 998.95,1000.09 L 998.95,1000.08 L 998.94,1000.07 L 998.94,1000.05 L 998.93,1000.04 L 998.93,1000.03 L 998.93,1000.01 L 998.92,1000.00 L 998.92,999.99 L 998.91,999.97 L 998.91,999.96 L 998.91,999.94 L 998.90,999.93 L 998.90,999.92 L 998.90,999.90 L 998.89,999.89 L 998.89,999.87 L 998.89,999.86 L 998.89,999.84 L 998.88,999.83 L 998.88,999.82 L 998.88,999.80 L 998.88,999.79 L 998.88,999.77 L 998.87,999.76 L 998.87,999.74 L 998.87,999.73 L 998.87,999.71 L 998.87,999.70 L 998.87,999.68 L 998.87,999.66 L 998.87,999.65 L 998.87,999.63 L 998.87,999.62 L 998.87,999.60 L 998.87,999.59 L 998.87,999.57 L 998.87,999.55 L 998.88,999.54 L 998.88,999.52 L 998.88,999.51 L 998.88,999.49 L 998.88,999.47 L 998.89,999.46 L 998.89,999.44 L 998.89,999.43 L 998.89,999.41 L 998.90,999.39 L 998.90,999.38 L 998.90,999.36 L 998.91,999.35 L 998.91,999.33 L 998.92,999.31 L 998.92,999.30 L 998.93,999.28 L 998.93,999.26 L 998.94,999.25 L 998.94,999.23 L 998.95,999.22 L 998.95,999.20 L 998.96,999.18 L 998.97,999.17 L 998.97,999.15 L 998.98,999.13 L 998.99,999.12 L 998.99,999.10 L 999.00,999.09 L 999.01,999.07 L 999.02,999.05 L 999.03,999.04 L 999.03,999.02 L 999.04,999.01 L 999.05,998.99 L 999.06,998.97 L 999.07,998.96 L 999.08,998.94 L 999.09,998.93 L 999.10,998.91 L 999.11,998.90 L 999.12,998.88 L 999.13,998.87 L 999.14,998.85 L 999.15,998.84 L 999.17,998.82 L 999.18,998.81 L 999.19,998.79 L 999.20,998.78 L 999.21,998.76 L 999.23,998.75 L 999.24,998.73 L 999.25,998.72 L 999.27,998.70 L 999.28,998.69 L 999.29,998.68 L 999.31,998.66 L 999.32,998.65 L 999.34,998.63 L 999.35,998.62 L 999.37,998.61 L 999.38,998.59 L 999.40,998.58 L 999.41,998.57 L 999.43,998.55 L 999.44,998.54 L 999.46,998.53 L 999.48,998.52 L 999.49,998.50 L 999.51,998.49 L 999.53,998.48 L 999.54,998.47 L 999.56,998.46 L 999.58,998.45 L 999.60,998.44 L 999.62,998.42 L 999.63,998.41 L 999.65,998.40 L 999.67,998.39 L 999.69,998.38 L 999.71,998.37 L 999.73,998.36 L 999.75,998.35 L 999.77,998.34 L 999.79,998.33 L 999.81,998.33 L 999.83,998.32 L 999.85,998.31 L 999.87,998.30 L 999.89,998.29 L 999.91,998.28 L 999.93,998.28 L 999.96,998.27 L 999.98,998.26 L 1000.00,998.26 L 1000.02,998.25 L 1000.04,998.24 L 1000.07,998.24 L 1000.09,998.23 L 1000.11,998.22 L 1000.13,998.22 L 1000.16,998.21 L 1000.18,998.21 L 1000.20,998.21 L 1000.23,998.20 L 1000.25,998.20 L 1000.27,998.19 L 1000.30,998.19 L 1000.32,998.19 L 1000.35,998.18 L 1000.37,998.18 L 1000.39,998.18 L 1000.42,998.18 L 1000.44,998.18 L 1000.47,998.17 L 1000.49,998.17 L 1000.52,998.17 L 1000.54,998.17 L 1000.57,998.17 L 1000.59,998.17 L 1000.62,998.17 L 1000.64,998.17 L 1000.67,998.18 L 1000.70,998.18 L 1000.72,998.18 L 1000.75,998.18 L 1000.77,998.18 L 1000.80,998.19 L 1000.82,998.19 L 1000.85,998.19 L 1000.88,998.20 L 1000.90,998.20 L 1000.93,998.21 L 1000.95,998.21 L 1000.98,998.22 L 1001.01,998.22 L 1001.03,998.23 L 1001.06,998.23 L 1001.09,998.24 L 1001.11,998.25 L 1001.14,998.26 L 1001.16,998.26 L 1001.19,998.27 L 1001.22,998.28 L 1001.24,998.29 L 1001.27,998.30 L 1001.30,998.31 L 1001.32,998.32 L 1001.35,998.33 L 1001.37,998.34 L 1001.40,998.35 L 1001.43,998.36 L 1001.45,998.37 L 1001.48,998.38 L 1001.50,998.40 L 1001.53,998.41 L 1001.56,998.42 L 1001.58,998.44 L 1001.61,998.45 L 1001.63,998.47 L 1001.66,998.48 L 1001.68,998.50 L 1001.71,998.51 L 1001.74,998.53 L 1001.76,998.54 L 1001.79,998.56 L 1001.81,998.58 L 1001.83,998.60 L 1001.86,998.61 L 1001.88,998.63 L 1001.91,998.65 L 1001.93,998.67 L 1001.96,998.69 L 1001.98,998.71 L 1002.00,998.73 L 1002.03,998.75 L 1002.05,998.77 L 1002.07,998.79 L 1002.10,998.81 L 1002.12,998.83 L 1002.14,998.86 L 1002.17,998.88 L 1002.19,998.90 L 1002.21,998.93 L 1002.23,998.95 L 1002.25,998.97 L 1002.28,999.00 L 1002.30,999.02 L 1002.32,999.05 L 1002.34,999.07 L 1002.36,999.10 L 1002.38,999.13 L 1002.40,999.15 L 1002.42,999.18 L 1002.44,999.21 L 1002.46,999.24 L 1002.48,999.26 L 1002.50,999.29 L 1002.51,999.32 L 1002.53,999.35 L 1002.55,999.38 L 1002.57,999.41 L 1002.58,999.44 L 1002.60,999.47 L 1002.62,999.50 L 1002.63,999.53 L 1002.65,999.56 L 1002.67,999.60 L 1002.68,999.63 L 1002.70,999.66 L 1002.71,999.69 L 1002.72,999.73 L 1002.74,999.76 L 1002.75,999.79 L 1002.76,999.83 L 1002.78,999.86 L 1002.79,999.89 L 1002.80,999.93 L 1002.81,999.96 L 1002.82,1000.00 L 1002.83,1000.04 L 1002.84,1000.07 L 1002.85,1000.11 L 1002.86,1000.14 L 1002.87,1000.18 L 1002.88,1000.22 L 1002.89,1000.25 L 1002.90,1000.29 L 1002.90,1000.33 L 1002.91,1000.37 L 1002.92,1000.41 L 1002.92,1000.44 L 1002.93,1000.48 L 1002.93,1000.52 L 1002.94,1000.56 L 1002.94,1000.60 L 1002.95,1000.64 L 1002.95,1000.68 L 1002.95,1000.72 L 1002.95,1000.76 L 1002.96,1000.80 L 1002.96,1000.84 L 1002.96,1000.88 L 1002.96,1000.92 L 1002.96,1000.96 L 1002.96,1001.00 L 1002.95,1001.04 L 1002.95,1001.08 L 1002.95,1001.13 L 1002.95,1001.17 L 1002.94,1001.21 L 1002.94,1001.25 L 1002.93,1001.29 L 1002.93,1001.33 L 1002.92,1001.38 L 1002.92,1001.42 L 1002.91,1001.46 L 1002.90,1001.50 L 1002.89,1001.54 L 1002.89,1001.59 L 1002.88,1001.63 L 1002.87,1001.67 L 1002.86,1001.71 L 1002.85,1001.76 L 1002.83,1001.80 L 1002.82,1001.84 L 1002.81,1001.88 L 1002.80,1001.93 L 1002.78,1001.97 L 1002.77,1002.01 L 1002.75,1002.05 L 1002.74,1002.10 L 1002.72,1002.14 L 1002.71,1002.18 L 1002.69,1002.22 L 1002.67,1002.27 L 1002.65,1002.31 L 1002.63,1002.35 L 1002.61,1002.39 L 1002.59,1002.43 L 1002.57,1002.48 L 1002.55,1002.52 L 1002.53,1002.56 L 1002.51,1002.60 L 1002.48,1002.64 L 1002.46,1002.68 L 1002.43,1002.73 L 1002.41,1002.77 L 1002.38,1002.81 L 1002.36,1002.85 L 1002.33,1002.89 L 1002.30,1002.93 L 1002.27,1002.97 L 1002.24,1003.01 L 1002.21,1003.05 L 1002.18,1003.09 L 1002.15,1003.13 L 1002.12,1003.17 L 1002.09,1003.21 L 1002.06,1003.24 L 1002.03,1003.28 L 1001.99,1003.32 L 1001.96,1003.36 L 1001.92,1003.39 L 1001.89,1003.43 L 1001.85,1003.47 L 1001.81,1003.51 L 1001.78,1003.54 L 1001.74,1003.58 L 1001.70,1003.61 L 1001.66,1003.65 L 1001.62,1003.68 L 1001.58,1003.72 L 1001.54,1003.75 L 1001.50,1003.78 L 1001.46,1003.82 L 1001.41,1003.85 L 1001.37,1003.88 L 1001.33,1003.91 L 1001.28,1003.95 L 1001.24,1003.98 L 1001.19,1004.01 L 1001.15,1004.04 L 1001.10,1004.07 L 1001.05,1004.10 L 1001.00,1004.13 L 1000.96,1004.15 L 1000.91,1004.18 L 1000.86,1004.21 L 1000.81,1004.24 L 1000.76,1004.26 L 1000.71,1004.29 L 1000.66,1004.31 L 1000.60,1004.34 L 1000.55,1004.36 L 1000.50,1004.38 L 1000.44,1004.41 L 1000.39,1004.43 L 1000.34,1004.45 L 1000.28,1004.47 L 1000.23,1004.49 L 1000.17,1004.51 L 1000.11,1004.53 L 1000.06,1004.55 L 1000.00,1004.57 L 999.94,1004.59 L 999.88,1004.60 L 999.83,1004.62 L 999.77,1004.63 L 999.71,1004.65 L 999.65,1004.66 L 999.59,1004.67 L 999.53,1004.69 L 999.47,1004.70 L 999.40,1004.71 L 999.34,1004.72 L 999.28,1004.73 L 999.22,1004.74 L 999.16,1004.75 L 999.09,1004.75 L 999.03,1004.76 L 998.97,1004.77 L 998.90,1004.77 L 998.84,1004.78 L 998.77,1004.78 L 998.71,1004.78 L 998.64,1004.78 L 998.58,1004.78 L 998.51,1004.78 L 998.45,1004.78 L 998.38,1004.78 L 998.31,1004.78 L 998.25,1004.78 L 998.18,1004.77 L 998.11,1004.77 L 998.05,1004.76 L 997.98,1004.75 L 997.91,1004.75 L 997.84,1004.74 L 997.77,1004.73 L 997.71,1004.72 L 997.64,1004.71 L 997.57,1004.70 L 997.50,1004.68 L 997.43,1004.67 L 997.36,1004.65 L 997.30,1004.64 L 997.23,1004.62 L 997.16,1004.61 L 997.09,1004.59 L 997.02,1004.57 L 996.95,1004.55 L 996.88,1004.53 L 996.81,1004.50 L 996.74,1004.48 L 996.68,1004.46 L 996.61,1004.43 L 996.54,1004.40 L 996.47,1004.38 L 996.40,1004.35 L 996.33,1004.32 L 996.26,1004.29 L 996.20,1004.26 L 996.13,1004.23 L 996.06,1004.20 L 995.99,1004.16 L 995.92,1004.13 L 995.86,1004.09 L 995.79,1004.05 L 995.72,1004.02 L 995.66,1003.98 L 995.59,1003.94 L 995.52,1003.90 L 995.46,1003.86 L 995.39,1003.81 L 995.33,1003.77 L 995.26,1003.72 L 995.20,1003.68 L 995.13,1003.63 L 995.07,1003.58 L 995.00,1003.54 L 994.94,1003.49 L 994.88,1003.43 L 994.81,1003.38 L 994.75,1003.33 L 994.69,1003.28 L 994.63,1003.22 L 994.57,1003.17 L 994.51,1003.11 L 994.45,1003.05 L 994.39,1002.99 L 994.33,1002.93 L 994.27,1002.87 L 994.21,1002.81 L 994.16,1002.75 L 994.10,1002.69 L 994.04,1002.62 L 993.99,1002.56 L 993.93,1002.49 L 993.88,1002.42 L 993.82,1002.36 L 993.77,1002.29 L 993.72,1002.22 L 993.67,1002.15 L 993.62,1002.07 L 993.57,1002.00 L 993.52,1001.93 L 993.47,1001.85 L 993.42,1001.78 L 993.37,1001.70 L 993.32,1001.62 L 993.28,1001.55 L 993.23,1001.47 L 993.19,1001.39 L 993.15,1001.31 L 993.10,1001.23 L 993.06,1001.14 L 993.02,1001.06 L 992.98,1000.98 L 992.94,1000.89 L 992.91,1000.81 L 992.87,1000.72 L 992.83,1000.63 L 992.80,1000.54 L 992.76,1000.46 L 992.73,1000.37 L 992.70,1000.28 L 992.67,1000.18 L 992.64,1000.09 L 992.61,1000.00 L 992.58,999.91 L 992.55,999.81 L 992.53,999.72 L 992.50,999.62 L 992.48,999.53 L 992.46,999.43 L 992.44,999.33 L 992.42,999.23 L 992.40,999.14 L 992.38,999.04 L 992.36,998.94 L 992.35,998.84 L 992.33,998.74 L 992.32,998.63 L 992.31,998.53 L 992.30,998.43 L 992.29,998.33 L 992.28,998.22 L 992.27,998.12 L 992.27,998.01 L 992.26,997.91 L 992.26,997.80 L 992.26,997.70 L 992.26,997.59 L 992.26,997.49 L 992.26,997.38 L 992.27,997.27 L 992.27,997.16 L 992.28,997.05 L 992.29,996.95 L 992.30,996.84 L 992.31,996.73 L 992.32,996.62 L 992.33,996.51 L 992.35,996.40 L 992.36,996.29 L 992.38,996.18 L 992.40,996.07 L 992.42,995.96 L 992.44,995.85 L 992.47,995.74 L 992.49,995.62 L 992.52,995.51 L 992.55,995.40 L 992.58,995.29 L 992.61,995.18 L 992.64,995.07 L 992.68,994.96 L 992.71,994.84 L 992.75,994.73 L 992.79,994.62 L 992.83,994.51 L 992.87,994.40 L 992.92,994.29 L 992.96,994.18 L 993.01,994.07 L 993.06,993.96 L 993.11,993.85 L 993.16,993.74 L 993.21,993.63 L 993.27,993.52 L 993.32,993.41 L 993.38,993.30 L 993.44,993.19 L 993.50,993.08 L 993.56,992.97 L 993.63,992.86 L 993.69,992.76 L 993.76,992.65 L 993.83,992.54 L 993.90,992.44 L 993.97,992.33 L 994.05,992.23 L 994.12,992.12 L 994.20,992.02 L 994.28,991.92 L 994.36,991.81 L 994.44,991.71 L 994.53,991.61 L 994.61,991.51 L 994.70,991.41 L 994.79,991.31 L 994.88,991.21 L 994.97,991.11 L 995.06,991.02 L 995.16,990.92 L 995.25,990.82 L 995.35,990.73 L 995.45,990.64 L 995.55,990.54 L 995.65,990.45 L 995.76,990.36 L 995.86,990.27 L 995.97,990.18 L 996.08,990.09 L 996.19,990.01 L 996.30,989.92 L 996.41,989.84 L 996.53,989.75 L 996.64,989.67 L 996.76,989.59 L 996.88,989.51 L 997.00,989.43 L 997.12,989.35 L 997.25,989.27 L 997.37,989.20 L 997.50,989.13 L 997.63,989.05 L 997.75,988.98 L 997.88,988.91 L 998.02,988.84 L 998.15,988.78 L 998.28,988.71 L 998.42,988.65 L 998.56,988.58 L 998.70,988.52 L 998.84,988.46 L 998.98,988.40 L 999.12,988.35 L 999.26,988.29 L 999.41,988.24 L 999.55,988.19 L 999.70,988.14 L 999.85,988.09 L 1000.00,988.04 L 1000.15,988.00 L 1000.30,987.95 L 1000.46,987.91 L 1000.61,987.87 L 1000.77,987.83 L 1000.92,987.80 L 1001.08,987.76 L 1001.24,987.73 L 1001.40,987.70 L 1001.56,987.67 L 1001.72,987.64 L 1001.88,987.62 L 1002.04,987.59 L 1002.21,987.57 L 1002.37,987.55 L 1002.54,987.54 L 1002.71,987.52 L 1002.87,987.51 L 1003.04,987.50 L 1003.21,987.49 L 1003.38,987.48 L 1003.55,987.48 L 1003.72,987.48 L 1003.90,987.47 L 1004.07,987.48 L 1004.24,987.48 L 1004.42,987.49 L 1004.59,987.50 L 1004.77,987.51 L 1004.94,987.52 L 1005.12,987.53 L 1005.29,987.55 L 1005.47,987.57 L 1005.65,987.59 L 1005.83,987.62 L 1006.00,987.64 L 1006.18,987.67 L 1006.36,987.70 L 1006.54,987.74 L 1006.72,987.77 L 1006.90,987.81 L 1007.08,987.85 L 1007.26,987.90 L 1007.44,987.94 L 1007.62,987.99 L 1007.80,988.04 L 1007.98,988.10 L 1008.16,988.15 L 1008.34,988.21 L 1008.52,988.27 L 1008.70,988.33 L 1008.88,988.40 L 1009.06,988.47 L 1009.24,988.54 L 1009.42,988.61 L 1009.60,988.69 L 1009.78,988.77 L 1009.96,988.85 L 1010.14,988.93 L 1010.31,989.02 L 1010.49,989.11 L 1010.67,989.20 L 1010.85,989.29 L 1011.02,989.39 L 1011.20,989.49 L 1011.37,989.59 L 1011.55,989.69 L 1011.72,989.80 L 1011.89,989.91 L 1012.07,990.02 L 1012.24,990.13 L 1012.41,990.25 L 1012.58,990.37 L 1012.75,990.49 L 1012.91,990.62 L 1013.08,990.74 L 1013.25,990.87 L 1013.41,991.01 L 1013.58,991.14 L 1013.74,991.28 L 1013.90,991.42 L 1014.06,991.56 L 1014.22,991.71 L 1014.38,991.86 L 1014.54,992.01 L 1014.69,992.16 L 1014.85,992.32 L 1015.00,992.48 L 1015.15,992.64 L 1015.30,992.80 L 1015.45,992.97 L 1015.60,993.13 L 1015.74,993.30 L 1015.89,993.48 L 1016.03,993.65 L 1016.17,993.83 L 1016.31,994.01 L 1016.45,994.20 L 1016.58,994.38 L 1016.72,994.57 L 1016.85,994.76 L 1016.98,994.95 L 1017.10,995.15 L 1017.23,995.34 L 1017.35,995.54 L 1017.48,995.75 L 1017.60,995.95 L 1017.71,996.16 L 1017.83,996.37 L 1017.94,996.58 L 1018.05,996.79 L 1018.16,997.01 L 1018.27,997.22 L 1018.37,997.44 L 1018.47,997.67 L 1018.57,997.89 L 1018.67,998.12 L 1018.76,998.35 L 1018.86,998.58 L 1018.94,998.81 L 1019.03,999.04 L 1019.12,999.28 L 1019.20,999.52 L 1019.28,999.76 L 1019.35,1000.00 L 1019.42,1000.24 L 1019.49,1000.49 L 1019.56,1000.74 L 1019.63,1000.99 L 1019.69,1001.24 L 1019.75,1001.49 L 1019.80,1001.75 L 1019.86,1002.00 L 1019.91,1002.26 L 1019.95,1002.52 L 1020.00,1002.78 L 1020.04,1003.04 L 1020.07,1003.31 L 1020.11,1003.57 L 1020.14,1003.84 L 1020.17,1004.11 L 1020.19,1004.38 L 1020.21,1004.65 L 1020.23,1004.92 L 1020.24,1005.20 L 1020.25,1005.47 L 1020.26,1005.75 L 1020.27,1006.03 L 1020.27,1006.30 L 1020.26,1006.58 L 1020.26,1006.86 L 1020.25,1007.15 L 1020.23,1007.43 L 1020.22,1007.71 L 1020.19,1008.00 L 1020.17,1008.28 L 1020.14,1008.57 L 1020.11,1008.85 L 1020.07,1009.14 L 1020.03,1009.43 L 1019.99,1009.72 L 1019.94,1010.00 L 1019.89,1010.29 L 1019.84,1010.58 L 1019.78,1010.87 L 1019.72,1011.17 L 1019.65,1011.46 L 1019.58,1011.75 L 1019.51,1012.04 L 1019.43,1012.33 L 1019.35,1012.62 L 1019.26,1012.91 L 1019.17,1013.21 L 1019.08,1013.50 L 1018.98,1013.79 L 1018.88,1014.08 L 1018.77,1014.37 L 1018.66,1014.66 L 1018.54,1014.95 L 1018.43,1015.24 L 1018.30,1015.53 L 1018.18,1015.82 L 1018.05,1016.11 L 1017.91,1016.40 L 1017.77,1016.69 L 1017.63,1016.98 L 1017.48,1017.26 L 1017.33,1017.55 L 1017.17,1017.83 L 1017.01,1018.12 L 1016.85,1018.40 L 1016.68,1018.68 L 1016.51,1018.96 L 1016.33,1019.24 L 1016.15,1019.52 L 1015.96,1019.80 L 1015.78,1020.08 L 1015.58,1020.35 L 1015.38,1020.62 L 1015.18,1020.90 L 1014.98,1021.17 L 1014.76,1021.43 L 1014.55,1021.70 L 1014.33,1021.97 L 1014.11,1022.23 L 1013.88,1022.49 L 1013.65,1022.75 L 1013.41,1023.01 L 1013.18,1023.27 L 1012.93,1023.52 L 1012.68,1023.77 L 1012.43,1024.02 L 1012.18,1024.27 L 1011.92,1024.52 L 1011.65,1024.76 L 1011.38,1025.00 L 1011.11,1025.24 L 1010.83,1025.47 L 1010.55,1025.71 L 1010.27,1025.94 L 1009.98,1026.16 L 1009.69,1026.39 L 1009.39,1026.61 L 1009.09,1026.83 L 1008.79,1027.05 L 1008.48,1027.26 L 1008.17,1027.47 L 1007.85,1027.68 L 1007.53,1027.88 L 1007.21,1028.08 L 1006.88,1028.28 L 1006.55,1028.47 L 1006.22,1028.66 L 1005.88,1028.85 L 1005.54,1029.03 L 1005.19,1029.21 L 1004.84,1029.39 L 1004.49,1029.56 L 1004.14,1029.73 L 1003.78,1029.89 L 1003.41,1030.05 L 1003.05,1030.21 L 1002.68,1030.36 L 1002.30,1030.51 L 1001.93,1030.65 L 1001.55,1030.79 L 1001.17,1030.93 L 1000.78,1031.06 L 1000.39,1031.19 L 1000.00,1031.31 L 999.61,1031.43 L 999.21,1031.54 L 998.81,1031.65 L 998.40,1031.76 L 998.00,1031.86 L 997.59,1031.95 L 997.17,1032.04 L 996.76,1032.13 L 996.34,1032.21 L 995.92,1032.28 L 995.50,1032.35 L 995.07,1032.42 L 994.65,1032.48 L 994.22,1032.53 L 993.78,1032.58 L 993.35,1032.63 L 992.91,1032.67 L 992.47,1032.70 L 992.03,1032.73 L 991.59,1032.75 L 991.15,1032.77 L 990.70,1032.78 L 990.25,1032.79 L 989.80,1032.79 L 989.35,1032.79 L 988.89,1032.78 L 988.44,1032.76 L 987.98,1032.74 L 987.52,1032.71 L 987.06,1032.68 L 986.60,1032.64 L 986.14,1032.59 L 985.68,1032.54 L 985.21,1032.48 L 984.75,1032.42 L 984.28,1032.35 L 983.81,1032.27 L 983.34,1032.19 L 982.87,1032.10 L 982.40,1032.01 L 981.93,1031.90 L 981.46,1031.80 L 980.99,1031.68 L 980.52,1031.56 L 980.05,1031.44 L 979.58,1031.30 L 979.11,1031.16 L 978.63,1031.02 L 978.16,1030.87 L 977.69,1030.71 L 977.22,1030.54 L 976.75,1030.37 L 976.28,1030.19 L 975.81,1030.01 L 975.34,1029.81 L 974.87,1029.62 L 974.40,1029.41 L 973.93,1029.20 L 973.46,1028.98 L 973.00,1028.76 L 972.53,1028.52 L 972.07,1028.28 L 971.61,1028.04 L 971.15,1027.79 L 970.69,1027.53 L 970.23,1027.26 L 969.77,1026.99 L 969.32,1026.71 L 968.86,1026.42 L 968.41,1026.13 L 967.96,1025.83 L 967.52,1025.52 L 967.07,1025.21 L 966.63,1024.89 L 966.19,1024.56 L 965.75,1024.23 L 965.32,1023.89 L 964.89,1023.54 L 964.46,1023.19 L 964.03,1022.83 L 963.60,1022.46 L 963.18,1022.09 L 962.77,1021.71 L 962.35,1021.32 L 961.94,1020.92 L 961.53,1020.52 L 961.13,1020.11 L 960.73,1019.70 L 960.33,1019.28 L 959.94,1018.85 L 959.55,1018.42 L 959.16,1017.98 L 958.78,1017.53 L 958.41,1017.08 L 958.03,1016.62 L 957.67,1016.15 L 957.30,1015.68 L 956.94,1015.20 L 956.59,1014.71 L 956.24,1014.22 L 955.89,1013.72 L 955.55,1013.22 L 955.22,1012.71 L 954.89,1012.19 L 954.57,1011.67 L 954.25,1011.14 L 953.93,1010.60 L 953.63,1010.06 L 953.32,1009.51 L 953.03,1008.96 L 952.74,1008.40 L 952.45,1007.84 L 952.17,1007.27 L 951.90,1006.69 L 951.64,1006.11 L 951.38,1005.52 L 951.12,1004.93 L 950.88,1004.33 L 950.64,1003.73 L 950.40,1003.12 L 950.18,1002.51 L 949.96,1001.89 L 949.74,1001.26 L 949.54,1000.63 L 949.34,1000.00 L 949.15,999.36 L 948.96,998.72 L 948.79,998.07 L 948.62,997.42 L 948.46,996.76 L 948.30,996.09 L 948.16,995.43 L 948.02,994.76 L 947.89,994.08 L 947.76,993.40 L 947.65,992.72 L 947.54,992.03 L 947.45,991.34 L 947.36,990.64 L 947.28,989.94 L 947.20,989.24 L 947.14,988.53 L 947.09,987.82 L 947.04,987.11 L 947.00,986.39 L 946.97,985.67 L 946.95,984.95 L 946.94,984.22 L 946.94,983.49 L 946.95,982.76 L 946.97,982.03 L 946.99,981.29 L 947.03,980.55 L 947.07,979.81 L 947.13,979.07 L 947.19,978.32 L 947.27,977.57 L 947.35,976.82 L 947.44,976.07 L 947.55,975.32 L 947.66,974.56 L 947.78,973.81 L 947.92,973.05 L 948.06,972.29 L 948.21,971.53 L 948.38,970.77 L 948.55,970.01 L 948.74,969.25 L 948.93,968.48 L 949.13,967.72 L 949.35,966.96 L 949.57,966.19 L 949.81,965.43 L 950.06,964.66 L 950.31,963.90 L 950.58,963.14 L 950.86,962.38 L 951.15,961.61 L 951.45,960.85 L 951.76,960.09 L 952.08,959.33 L 952.41,958.57 L 952.75,957.82 L 953.11,957.06 L 953.47,956.31 L 953.85,955.56 L 954.23,954.81 L 954.63,954.06 L 955.04,953.31 L 955.46,952.57 L 955.89,951.83 L 956.33,951.09 L 956.78,950.35 L 957.25,949.62 L 957.72,948.89 L 958.20,948.16 L 958.70,947.44 L 959.21,946.72 L 959.73,946.01 L 960.25,945.29 L 960.79,944.59 L 961.34,943.88 L 961.91,943.18 L 962.48,942.49 L 963.06,941.80 L 963.66,941.11 L 964.26,940.43 L 964.88,939.75 L 965.51,939.08 L 966.15,938.42 L 966.79,937.76 L 967.45,937.10 L 968.12,936.46 L 968.81,935.81 L 969.50,935.18 L 970.20,934.55 L 970.91,933.93 L 971.64,933.31 L 972.37,932.70 L 973.12,932.10 L 973.87,931.50 L 974.64,930.91 L 975.41,930.33 L 976.20,929.76 L 976.99,929.19 L 977.80,928.64 L 978.62,928.09 L 979.44,927.54 L 980.28,927.01 L 981.12,926.49 L 981.98,925.97 L 982.85,925.46 L 983.72,924.97 L 984.61,924.48 L 985.50,924.00 L 986.41,923.53 L 987.32,923.07 L 988.24,922.62 L 989.17,922.18 L 990.11,921.75 L 991.06,921.32 L 992.02,920.91 L 992.99,920.52 L 993.97,920.13 L 994.95,919.75 L 995.94,919.38 L 996.95,919.03 L 997.96,918.68 L 998.97,918.35 L 1000.00,918.03 L 1001.03,917.72 L 1002.08,917.42 L 1003.13,917.13 L 1004.18,916.86 L 1005.25,916.60 L 1006.32,916.35 L 1007.40,916.11 L 1008.48,915.89 L 1009.58,915.68 L 1010.68,915.48 L 1011.78,915.30 L 1012.90,915.13 L 1014.02,914.97 L 1015.14,914.82 L 1016.27,914.69 L 1017.41,914.58 L 1018.55,914.47 L 1019.70,914.38 L 1020.86,914.31 L 1022.02,914.25 L 1023.18,914.20 L 1024.35,914.17 L 1025.53,914.15 L 1026.71,914.15 L 1027.89,914.16 L 1029.08,914.19 L 1030.27,914.23 L 1031.47,914.29 L 1032.67,914.36 L 1033.87,914.45 L 1035.08,914.56 L 1036.29,914.68 L 1037.50,914.81 L 1038.72,914.96 L 1039.94,915.13 L 1041.16,915.31 L 1042.38,915.51 L 1043.61,915.73 L 1044.84,915.96 L 1046.06,916.21 L 1047.30,916.47 L 1048.53,916.75 L 1049.76,917.05 L 1051.00,917.37 L 1052.23,917.70 L 1053.47,918.04 L 1054.70,918.41 L 1055.94,918.79 L 1057.17,919.19 L 1058.41,919.61 L 1059.64,920.04 L 1060.88,920.49 L 1062.11,920.96 L 1063.34,921.44 L 1064.57,921.94 L 1065.80,922.46 L 1067.03,923.00 L 1068.25,923.56 L 1069.48,924.13 L 1070.69,924.72 L 1071.91,925.33 L 1073.13,925.95 L 1074.34,926.59 L 1075.54,927.25 L 1076.75,927.93 L 1077.94,928.63 L 1079.14,929.34 L 1080.33,930.07 L 1081.51,930.82 L 1082.70,931.59 L 1083.87,932.37 L 1085.04,933.18 L 1086.21,934.00 L 1087.36,934.83 L 1088.52,935.69 L 1089.66,936.56 L 1090.80,937.45 L 1091.93,938.36 L 1093.06,939.29 L 1094.17,940.24 L 1095.28,941.20 L 1096.39,942.18 L 1097.48,943.17 L 1098.56,944.19 L 1099.64,945.22 L 1100.71,946.27 L 1101.77,947.34 L 1102.82,948.42 L 1103.85,949.53 L 1104.88,950.65 L 1105.90,951.78 L 1106.91,952.94 L 1107.91,954.11 L 1108.89,955.29 L 1109.87,956.50 L 1110.83,957.72 L 1111.79,958.96 L 1112.73,960.21 L 1113.65,961.49 L 1114.57,962.77 L 1115.47,964.08 L 1116.36,965.40 L 1117.24,966.74 L 1118.10,968.09 L 1118.95,969.46 L 1119.78,970.84 L 1120.60,972.25 L 1121.41,973.66 L 1122.20,975.09 L 1122.97,976.54 L 1123.74,978.00 L 1124.48,979.48 L 1125.21,980.97 L 1125.92,982.48 L 1126.62,984.00 L 1127.30,985.54 L 1127.96,987.09 L 1128.61,988.66 L 1129.24,990.24 L 1129.85,991.83 L 1130.44,993.44 L 1131.02,995.06 L 1131.58,996.69 L 1132.11,998.34 L 1132.63,1000.00 L 1133.14,1001.67 L 1133.62,1003.36 L 1134.08,1005.06 L 1134.52,1006.77 L 1134.95,1008.49 L 1135.35,1010.22 L 1135.73,1011.97 L 1136.09,1013.73 L 1136.43,1015.50 L 1136.75,1017.28 L 1137.05,1019.07 L 1137.33,1020.87 L 1137.58,1022.68 L 1137.82,1024.50 L 1138.03,1026.33 L 1138.22,1028.17 L 1138.39,1030.02 L 1138.53,1031.88 L 1138.65,1033.75 L 1138.75,1035.62 L 1138.82,1037.51 L 1138.88,1039.40 L 1138.90,1041.30 L 1138.91,1043.21 L 1138.89,1045.13 L 1138.84,1047.05 L 1138.77,1048.98 L 1138.68,1050.91 L 1138.56,1052.86 L 1138.42,1054.80 L 1138.25,1056.76 L 1138.06,1058.72 L 1137.84,1060.68 L 1137.59,1062.65 L 1137.32,1064.62 L 1137.03,1066.60 L 1136.70,1068.58 L 1136.35,1070.56 L 1135.98,1072.55 L 1135.58,1074.53 L 1135.15,1076.53 L 1134.70,1078.52 L 1134.21,1080.52 L 1133.70,1082.51 L 1133.17,1084.51 L 1132.61,1086.51 L 1132.02,1088.51 L 1131.40,1090.51 L 1130.75,1092.51 L 1130.08,1094.51 L 1129.38,1096.51 L 1128.65,1098.50 L 1127.89,1100.50 L 1127.11,1102.49 L 1126.30,1104.48 L 1125.46,1106.47 L 1124.59,1108.45 L 1123.69,1110.44 L 1122.76,1112.41 L 1121.81,1114.39 L 1120.83,1116.36 L 1119.82,1118.32 L 1118.78,1120.28 L 1117.71,1122.23 L 1116.61,1124.18 L 1115.48,1126.12 L 1114.33,1128.05 L 1113.15,1129.98 L 1111.93,1131.89 L 1110.69,1133.80 L 1109.42,1135.71 L 1108.12,1137.60 L 1106.80,1139.48 L 1105.44,1141.36 L 1104.06,1143.22 L 1102.64,1145.07 L 1101.20,1146.92 L 1099.73,1148.75 L 1098.23,1150.57 L 1096.70,1152.38 L 1095.14,1154.17 L 1093.56,1155.96 L 1091.95,1157.72 L 1090.30,1159.48 L 1088.63,1161.22 L 1086.93,1162.95 L 1085.21,1164.66 L 1083.45,1166.36 L 1081.67,1168.04 L 1079.86,1169.70 L 1078.02,1171.35 L 1076.15,1172.98 L 1074.26,1174.60 L 1072.33,1176.19 L 1070.39,1177.77 L 1068.41,1179.33 L 1066.40,1180.87 L 1064.37,1182.39 L 1062.32,1183.90 L 1060.23,1185.38 L 1058.12,1186.84 L 1055.98,1188.28 L 1053.82,1189.69 L 1051.63,1191.09 L 1049.42,1192.46 L 1047.17,1193.81 L 1044.91,1195.14 L 1042.62,1196.44 L 1040.30,1197.72 L 1037.96,1198.98 L 1035.59,1200.21 L 1033.20,1201.41 L 1030.78,1202.59 L 1028.34,1203.75 L 1025.88,1204.87 L 1023.40,1205.97 L 1020.89,1207.05 L 1018.35,1208.09 L 1015.80,1209.11 L 1013.22,1210.10 L 1010.62,1211.06 L 1008.00,1211.99 L 1005.35,1212.89 L 1002.69,1213.77 L 1000.00,1214.61 L 997.29,1215.42 L 994.57,1216.20 L 991.82,1216.95 L 989.05,1217.66 L 986.26,1218.35 L 983.46,1219.00 L 980.63,1219.62 L 977.79,1220.20 L 974.93,1220.75 L 972.05,1221.27 L 969.15,1221.75 L 966.24,1222.20 L 963.31,1222.62 L 960.36,1222.99 L 957.40,1223.34 L 954.42,1223.64 L 951.42,1223.91 L 948.42,1224.15 L 945.39,1224.34 L 942.36,1224.50 L 939.31,1224.62 L 936.25,1224.71 L 933.17,1224.75 L 930.08,1224.76 L 926.98,1224.72 L 923.87,1224.65 L 920.75,1224.54 L 917.62,1224.39 L 914.48,1224.20 L 911.33,1223.96 L 908.17,1223.69 L 905.00,1223.38 L 901.82,1223.02 L 898.64,1222.63 L 895.44,1222.19 L 892.25,1221.71 L 889.04,1221.19 L 885.83,1220.63 L 882.62,1220.02 L 879.40,1219.37 L 876.18,1218.68 L 872.95,1217.94 L 869.72,1217.16 L 866.49,1216.34 L 863.26,1215.47 L 860.02,1214.56 L 856.79,1213.61 L 853.55,1212.61 L 850.32,1211.56 L 847.08,1210.47 L 843.85,1209.34 L 840.62,1208.16 L 837.39,1206.94 L 834.17,1205.67 L 830.95,1204.35 L 827.73,1202.99 L 824.52,1201.59 L 821.31,1200.13 L 818.11,1198.64 L 814.92,1197.09 L 811.73,1195.50 L 808.56,1193.86 L 805.39,1192.18 L 802.23,1190.45 L 799.08,1188.68 L 795.94,1186.86 L 792.81,1184.99 L 789.69,1183.07 L 786.59,1181.11 L 783.50,1179.10 L 780.42,1177.05 L 777.36,1174.95 L 774.31,1172.80 L 771.28,1170.61 L 768.26,1168.37 L 765.26,1166.08 L 762.28,1163.75 L 759.32,1161.37 L 756.37,1158.94 L 753.45,1156.47 L 750.54,1153.95 L 747.66,1151.38 L 744.80,1148.77 L 741.96,1146.11 L 739.14,1143.41 L 736.34,1140.66 L 733.57,1137.87 L 730.83,1135.03 L 728.11,1132.14 L 725.41,1129.21 L 722.75,1126.24 L 720.11,1123.21 L 717.49,1120.15 L 714.91,1117.04 L 712.36,1113.89 L 709.83,1110.69 L 707.34,1107.45 L 704.88,1104.16 L 702.45,1100.83 L 700.06,1097.46 L 697.69,1094.04 L 695.36,1090.58 L 693.07,1087.08 L 690.81,1083.54 L 688.59,1079.96 L 686.41,1076.33 L 684.26,1072.66 L 682.15,1068.95 L 680.08,1065.21 L 678.05,1061.42 L 676.06,1057.59 L 674.11,1053.72 L 672.20,1049.81 L 670.33,1045.86 L 668.51,1041.88 L 666.73,1037.85 L 664.99,1033.79 L 663.30,1029.69 L 661.65,1025.56 L 660.05,1021.39 L 658.50,1017.18 L 656.99,1012.94 L 655.53,1008.66 L 654.12,1004.35 L 652.76,1000.00 L 651.45,995.62 L 650.18,991.21 L 648.97,986.76 L 647.82,982.28 L 646.71,977.77 L 645.65,973.23 L 644.65,968.66 L 643.71,964.06 L 642.81,959.43 L 641.98,954.77 L 641.19,950.08 L 640.47,945.37 L 639.80,940.63 L 639.19,935.86 L 638.63,931.07 L 638.14,926.25 L 637.70,921.40 L 637.32,916.54 L 637.01,911.65 L 636.75,906.73 L 636.55,901.80 L 636.42,896.84 L 636.35,891.87 L 636.34,886.87 L 636.39,881.86 L 636.51,876.82 L 636.69,871.77 L 636.93,866.70 L 637.24,861.62 L 637.62,856.52 L 638.06,851.41 L 638.57,846.28 L 639.14,841.14 L 639.78,835.99 L 640.49,830.83 L 641.26,825.65 L 642.11,820.47 L 643.02,815.28 L 644.00,810.07 L 645.05,804.87 L 646.17,799.65 L 647.36,794.43 L 648.62,789.21 L 649.96,783.98 L 651.36,778.75 L 652.83,773.51 L 654.38,768.28 L 656.00,763.04 L 657.69,757.81 L 659.45,752.57 L 661.28,747.34 L 663.19,742.12 L 665.17,736.89 L 667.22,731.68 L 669.35,726.46 L 671.55,721.26 L 673.83,716.06 L 676.18,710.88 L 678.60,705.70 L 681.10,700.53 L 683.67,695.38 L 686.32,690.24 L 689.04,685.11 L 691.84,680.00 L 694.71,674.90 L 697.66,669.82 L 700.68,664.76 L 703.78,659.72 L 706.95,654.70 L 710.20,649.70 L 713.53,644.72 L 716.93,639.76 L 720.40,634.83 L 723.95,629.92 L 727.58,625.04 L 731.28,620.19 L 735.05,615.36 L 738.91,610.57 L 742.83,605.80 L 746.83,601.07 L 750.91,596.37 L 755.06,591.70 L 759.28,587.07 L 763.58,582.47 L 767.96,577.92 L 772.40,573.39 L 776.93,568.91 L 781.52,564.47 L 786.19,560.07 L 790.93,555.71 L 795.75,551.39 L 800.63,547.12 L 805.59,542.89 L 810.63,538.72 L 815.73,534.58 L 820.90,530.50 L 826.15,526.47 L 831.47,522.49 L 836.85,518.56 L 842.31,514.68 L 847.84,510.86 L 853.43,507.09 L 859.10,503.38 L 864.83,499.73 L 870.63,496.13 L 876.50,492.59 L 882.43,489.12 L 888.43,485.71 L 894.50,482.36 L 900.63,479.07 L 906.82,475.85 L 913.08,472.69 L 919.41,469.60 L 925.79,466.58 L 932.24,463.63 L 938.75,460.75 L 945.32,457.94 L 951.95,455.20 L 958.64,452.54 L 965.39,449.95 L 972.20,447.44 L 979.07,445.00 L 985.99,442.64 L 992.97,440.35 L 1000.00,438.15 L 1007.09,436.03 L 1014.23,433.99 L 1021.42,432.03 L 1028.67,430.15 L 1035.96,428.36 L 1043.31,426.66 L 1050.71,425.04 L 1058.15,423.50 L 1065.64,422.06 L 1073.18,420.70 L 1080.77,419.44 L 1088.39,418.26 L 1096.07,417.18 L 1103.78,416.19 L 1111.54,415.30 L 1119.34,414.49 L 1127.17,413.79 L 1135.05,413.18 L 1142.96,412.66 L 1150.91,412.25 L 1158.89,411.93 L 1166.91,411.71 L 1174.96,411.60 L 1183.05,411.58 L 1191.16,411.67 L 1199.30,411.86 L 1207.48,412.15 L 1215.68,412.54 L 1223.90,413.05 L 1232.15,413.65 L 1240.43,414.37 L 1248.72,415.19 L 1257.04,416.11 L 1265.37,417.15 L 1273.73,418.30 L 1282.10,419.55 L 1290.49,420.92 L 1298.89,422.39 L 1307.31,423.98 L 1315.73,425.68 L 1324.17,427.50 L 1332.62,429.42 L 1341.07,431.46 L 1349.53,433.62 L 1358.00,435.89 L 1366.47,438.27 L 1374.94,440.77 L 1383.41,443.39 L 1391.88,446.12 L 1400.34,448.97 L 1408.81,451.94 L 1417.27,455.03 L 1425.72,458.23 L 1434.16,461.56 L 1442.59,465.00 L 1451.01,468.56 L 1459.42,472.24 L 1467.81,476.04 L 1476.19,479.97 L 1484.55,484.01 L 1492.89,488.17 L 1501.21,492.46 L 1509.50,496.86 L 1517.77,501.39 L 1526.02,506.03 L 1534.24,510.80 L 1542.43,515.69 L 1550.59,520.71 L 1558.71,525.84 L 1566.80,531.10 L 1574.86,536.48 L 1582.88,541.98 L 1590.86,547.60 L 1598.80,553.34 L 1606.69,559.21 L 1614.55,565.20 L 1622.35,571.31 L 1630.11,577.54 L 1637.82,583.89 L 1645.48,590.37 L 1653.09,596.96 L 1660.64,603.68 L 1668.13,610.51 L 1675.57,617.47 L 1682.95,624.55 L 1690.26,631.74 L 1697.52,639.06 L 1704.71,646.49 L 1711.83,654.05 L 1718.88,661.72 L 1725.86,669.51 L 1732.77,677.42 L 1739.61,685.44 L 1746.37,693.59 L 1753.06,701.84 L 1759.66,710.22 L 1766.19,718.70 L 1772.63,727.31 L 1778.99,736.02 L 1785.26,744.85 L 1791.45,753.79 L 1797.55,762.85 L 1803.55,772.01 L 1809.46,781.29 L 1815.28,790.67 L 1821.00,800.17 L 1826.62,809.77 L 1832.14,819.48 L 1837.57,829.29 L 1842.88,839.21 L 1848.10,849.24 L 1853.20,859.37 L 1858.20,869.60 L 1863.09,879.93 L 1867.86,890.36 L 1872.52,900.90 L 1877.07,911.53 L 1881.50,922.26 L 1885.81,933.08 L 1890.00,944.01 L 1894.07,955.02 L 1898.01,966.13 L 1901.83,977.33 L 1905.53,988.62 L 1909.09,1000.00" stroke="#DAA520" fill="none" stroke-width="2"/>
</svg>
